<svg width="64" height="64" viewBox="0 0 64 64" fill="none" xmlns="http://www.w3.org/2000/svg">
<rect width="64" height="64" rx="12" fill="#F7FAFC"/>
<path d="M32.7469 21.5003V31.0094L40.6482 35.7497C41.0462 35.9887 41.3329 36.3761 41.4453 36.8265C41.5577 37.2769 41.4866 37.7536 41.2475 38.1516C41.0085 38.5496 40.6212 38.8363 40.1707 38.9487C39.7203 39.0611 39.2437 38.99 38.8457 38.7509L30.0957 33.5009C29.8367 33.3454 29.6224 33.1254 29.4737 32.8624C29.325 32.5994 29.2468 32.3024 29.2469 32.0003V21.5003C29.2469 21.0362 29.4313 20.5911 29.7595 20.2629C30.0877 19.9347 30.5328 19.7503 30.9969 19.7503C31.4611 19.7503 31.9062 19.9347 32.2344 20.2629C32.5625 20.5911 32.7469 21.0362 32.7469 21.5003ZM52.6663 16.3838C52.3466 16.2511 51.9947 16.2163 51.6551 16.2836C51.3156 16.351 51.0037 16.5175 50.7588 16.7622L48.0594 19.4681C47.3528 18.7003 46.6244 17.9369 45.85 17.1516C42.9316 14.2328 39.2177 12.2388 35.1725 11.4187C31.1272 10.5986 26.93 10.9888 23.1053 12.5405C19.2805 14.0922 15.9978 16.7366 13.6674 20.1433C11.337 23.55 10.0622 27.5679 10.0022 31.695C9.94227 35.8221 11.0999 39.8754 13.3304 43.3483C15.5609 46.8213 18.7654 49.5599 22.5435 51.222C26.3215 52.8842 30.5056 53.3961 34.573 52.6938C38.6403 51.9915 42.4106 50.1062 45.4125 47.2734C45.5797 47.1154 45.7142 46.9261 45.8082 46.7161C45.9022 46.5062 45.9539 46.2798 45.9604 46.0498C45.9669 45.8199 45.928 45.5909 45.846 45.376C45.7641 45.161 45.6405 44.9644 45.4825 44.7972C45.3245 44.63 45.1352 44.4956 44.9252 44.4016C44.7153 44.3076 44.4889 44.2558 44.2589 44.2493C44.029 44.2428 43.8 44.2817 43.5851 44.3637C43.3702 44.4457 43.1735 44.5692 43.0063 44.7272C40.5049 47.0875 37.3634 48.6584 33.9743 49.2437C30.5853 49.829 27.0989 49.4027 23.9507 48.0181C20.8026 46.6334 18.1322 44.3519 16.2731 41.4584C14.4141 38.5649 13.4489 35.1878 13.498 31.7489C13.5471 28.3101 14.6085 24.9619 16.5494 22.1228C18.4903 19.2836 21.2248 17.0792 24.4113 15.7851C27.5977 14.491 31.0949 14.1645 34.4658 14.8464C37.8368 15.5282 40.9321 17.1883 43.365 19.6191C44.1394 20.4022 44.8679 21.1722 45.5766 21.9444L42.0088 25.5122C41.7638 25.7569 41.5969 26.0689 41.5292 26.4085C41.4616 26.7482 41.4963 27.1003 41.6288 27.4202C41.7614 27.7401 41.9859 28.0136 42.2739 28.2058C42.562 28.3981 42.9006 28.5006 43.2469 28.5003H51.9969C52.461 28.5003 52.9062 28.3159 53.2343 27.9878C53.5625 27.6596 53.7469 27.2145 53.7469 26.7503V18.0003C53.7468 17.6542 53.6441 17.3159 53.4518 17.0281C53.2594 16.7404 52.9861 16.5162 52.6663 16.3838Z" fill="#060919"/>
</svg>
