<svg width="64" height="64" viewBox="0 0 64 64" fill="none" xmlns="http://www.w3.org/2000/svg">
<rect width="64" height="64" rx="12" fill="#F7FAFC"/>
<path d="M26.1173 13.8789C26.1173 12.7161 26.4621 11.5795 27.108 10.6127C27.754 9.64597 28.6722 8.89246 29.7464 8.44751C30.8206 8.00255 32.0027 7.88613 33.1431 8.11296C34.2835 8.3398 35.331 8.89971 36.1531 9.72188C36.9753 10.5441 37.5352 11.5916 37.7621 12.732C37.9889 13.8724 37.8725 15.0544 37.4275 16.1286C36.9826 17.2028 36.2291 18.121 35.2623 18.767C34.2955 19.413 33.1589 19.7578 31.9962 19.7578C30.437 19.7578 28.9417 19.1384 27.8392 18.0359C26.7367 16.9334 26.1173 15.4381 26.1173 13.8789ZM52.9081 25.7563C52.7551 25.0037 52.3441 24.3282 51.7461 23.8464C51.1481 23.3645 50.4007 23.1066 49.6328 23.1171H14.3595C13.5936 23.1171 12.8507 23.3787 12.2539 23.8587C11.6571 24.3388 11.2423 25.0083 11.0781 25.7564C10.9139 26.5045 11.0103 27.2862 11.3513 27.972C11.6922 28.6578 12.2573 29.2065 12.9528 29.5272H12.9654L24.2801 34.5095L19.6778 51.9992C19.3266 52.8027 19.3035 53.7117 19.6134 54.532C19.9233 55.3523 20.5417 56.0189 21.3365 56.3894C21.7807 56.6003 22.2662 56.7101 22.7579 56.7107C23.3912 56.7116 24.0118 56.5335 24.5483 56.1969C25.0847 55.8604 25.5151 55.379 25.7897 54.8084L31.9962 44.1131L38.2068 54.821C38.593 55.6068 39.2709 56.2108 40.0959 56.5042C40.9209 56.7976 41.8278 56.7573 42.6235 56.3918C43.4192 56.0264 44.0408 55.3648 44.3559 54.5478C44.671 53.7308 44.6546 52.8232 44.3103 52.0181L39.708 34.5284L51.0458 29.5398C51.7494 29.2261 52.3209 28.6759 52.6611 27.9848C53.0013 27.2937 53.0887 26.5052 52.9081 25.7563Z" fill="#060919"/>
</svg>
