<svg width="64" height="64" viewBox="0 0 64 64" fill="none" xmlns="http://www.w3.org/2000/svg">
<rect x="64" width="64" height="64" rx="12" transform="rotate(90 64 0)" fill="#F7FAFC"/>
<path d="M18.8735 26.748C17.3163 26.748 15.794 26.2863 14.4993 25.4211C13.2045 24.556 12.1954 23.3264 11.5994 21.8877C11.0035 20.449 10.8476 18.866 11.1514 17.3387C11.4552 15.8114 12.2051 14.4085 13.3062 13.3074C14.4073 12.2063 15.8102 11.4565 17.3374 11.1527C18.8647 10.8489 20.4478 11.0048 21.8864 11.6007C23.3251 12.1966 24.5548 13.2058 25.4199 14.5005C26.285 15.7953 26.7468 17.3175 26.7468 18.8747C26.7468 20.9628 25.9173 22.9655 24.4407 24.442C22.9642 25.9185 20.9616 26.748 18.8735 26.748ZM34.2571 11.5131C34.0944 11.6756 33.9653 11.8686 33.8773 12.081C33.7892 12.2934 33.7439 12.5211 33.7439 12.751C33.7439 12.9809 33.7892 13.2086 33.8773 13.421C33.9653 13.6334 34.0944 13.8264 34.2571 13.9889L37.3955 17.1251L34.2571 20.2613C33.9288 20.5896 33.7443 21.0349 33.7443 21.4991C33.7443 21.9634 33.9288 22.4087 34.2571 22.737C34.5854 23.0653 35.0306 23.2498 35.4949 23.2498C35.9592 23.2498 36.4045 23.0653 36.7328 22.737L39.869 19.5986L43.0052 22.737C43.3335 23.0653 43.7788 23.2498 44.2431 23.2498C44.7074 23.2498 45.1526 23.0653 45.4809 22.737C45.8092 22.4087 45.9937 21.9634 45.9937 21.4991C45.9937 21.0349 45.8092 20.5896 45.4809 20.2613L42.3425 17.1251L45.4809 13.9889C45.8092 13.6606 45.9937 13.2153 45.9937 12.751C45.9937 12.2867 45.8092 11.8414 45.4809 11.5131C45.1526 11.1848 44.7074 11.0004 44.2431 11.0004C43.7788 11.0004 43.3335 11.1848 43.0052 11.5131L39.869 14.6515L36.7328 11.5131C36.5703 11.3505 36.3773 11.2214 36.1649 11.1334C35.9525 11.0453 35.7249 11 35.4949 11C35.265 11 35.0373 11.0453 34.8249 11.1334C34.6125 11.2214 34.4196 11.3505 34.2571 11.5131ZM18.8734 49.3489L22.0097 52.4873C22.338 52.8156 22.7832 53 23.2475 53C23.7118 53 24.1571 52.8156 24.4854 52.4873C24.8137 52.159 24.9981 51.7137 24.9981 51.2494C24.9981 50.7851 24.8137 50.3398 24.4854 50.0115L21.347 46.8688L24.4854 43.7326C24.8137 43.4043 24.9981 42.959 24.9981 42.4947C24.9981 42.0304 24.8137 41.5851 24.4854 41.2568C24.1571 40.9285 23.7118 40.7441 23.2475 40.7441C22.7832 40.7441 22.338 40.9285 22.0097 41.2568L18.8734 44.3952L15.7372 41.2568C15.4089 40.9285 14.9637 40.7441 14.4994 40.7441C14.0351 40.7441 13.5898 40.9285 13.2615 41.2568C12.9332 41.5851 12.7488 42.0304 12.7488 42.4947C12.7488 42.959 12.9332 43.4043 13.2615 43.7326L16.3999 46.8688L13.2615 50.005C13.099 50.1675 12.97 50.3605 12.882 50.5729C12.7941 50.7853 12.7488 51.0129 12.7488 51.2428C12.7488 51.4727 12.7941 51.7004 12.882 51.9128C12.97 52.1252 13.099 52.3181 13.2615 52.4807C13.4241 52.6433 13.6171 52.7722 13.8295 52.8602C14.0418 52.9482 14.2695 52.9934 14.4994 52.9934C14.7293 52.9934 14.9569 52.9482 15.1693 52.8602C15.3817 52.7722 15.5747 52.6433 15.7372 52.4807L18.8734 49.3489ZM48.9802 38.4837L49.492 37.9697L49.492 42.4947C49.492 42.9587 49.6763 43.4038 50.0044 43.7319C50.3325 44.06 50.7776 44.2443 51.2416 44.2443C51.7056 44.2443 52.1506 44.06 52.4788 43.7319C52.8069 43.4038 52.9912 42.9587 52.9912 42.4947L52.9912 33.7466C52.9912 33.2825 52.8069 32.8375 52.4788 32.5094C52.1506 32.1813 51.7056 31.9969 51.2416 31.9969L42.4934 31.9969C42.0294 31.9969 41.5844 32.1813 41.2563 32.5094C40.9281 32.8375 40.7438 33.2825 40.7438 33.7466C40.7438 34.2106 40.9281 34.6556 41.2563 34.9837C41.5844 35.3118 42.0294 35.4962 42.4934 35.4962L47.0184 35.4962L46.5045 36.0079C42.5831 39.9293 38.7624 39.9227 36.2473 39.2251C32.5796 38.2103 29.299 34.991 28.4439 31.5704C28.3401 31.1562 28.0884 30.7943 27.7362 30.5528C27.3841 30.3113 26.9557 30.207 26.5319 30.2594C26.1081 30.3118 25.7182 30.5174 25.4355 30.8375C25.1528 31.1575 24.9969 31.5699 24.9971 31.9969C24.9964 32.1443 25.0141 32.2913 25.0496 32.4343C26.2088 37.073 30.4297 41.259 35.3134 42.6106C40.1358 43.9338 44.9888 42.4728 48.9802 38.4837Z" fill="#060919"/>
</svg>
