<svg width="180" height="223" viewBox="0 0 180 223" fill="none" xmlns="http://www.w3.org/2000/svg">
<g clip-path="url(#clip0_208_9895)">
<path d="M47.83 180.73L42.64 221.2C42.6251 221.321 42.5656 221.432 42.4731 221.512C42.3807 221.591 42.2619 221.633 42.14 221.63H31.52C31.4131 221.631 31.3088 221.597 31.2224 221.534C31.136 221.471 31.0721 221.382 31.04 221.28L24.73 200.76C24.73 200.627 24.6773 200.5 24.5835 200.407C24.4898 200.313 24.3626 200.26 24.23 200.26C24.0974 200.26 23.9702 200.313 23.8764 200.407C23.7827 200.5 23.73 200.627 23.73 200.76L17.63 221.28C17.5993 221.383 17.5358 221.473 17.4491 221.536C17.3624 221.599 17.2573 221.632 17.15 221.63H6.50998C6.38639 221.636 6.26511 221.595 6.17051 221.515C6.07591 221.435 6.01499 221.323 5.99998 221.2L0.829981 180.73C0.819878 180.66 0.825034 180.589 0.845093 180.521C0.865152 180.453 0.899639 180.391 0.946189 180.337C0.992738 180.284 1.05025 180.242 1.11477 180.213C1.17929 180.184 1.2493 180.169 1.31998 180.17H10.51C10.635 180.167 10.7564 180.212 10.8494 180.296C10.9424 180.379 10.9998 180.495 11.01 180.62L12.95 201.62C12.9354 201.753 12.9741 201.886 13.0575 201.99C13.141 202.094 13.2624 202.16 13.395 202.175C13.5276 202.19 13.6606 202.151 13.7646 202.068C13.8687 201.984 13.9354 201.863 13.95 201.73L20.74 180.52C20.7751 180.421 20.8401 180.335 20.926 180.274C21.012 180.213 21.1147 180.18 21.22 180.18H27.5C27.6053 180.18 27.708 180.213 27.7939 180.274C27.8799 180.335 27.9449 180.421 27.98 180.52L34.77 201.73C34.7846 201.863 34.8512 201.984 34.9553 202.068C35.0594 202.151 35.1924 202.19 35.325 202.175C35.4576 202.16 35.579 202.094 35.6624 201.99C35.7459 201.886 35.7846 201.753 35.77 201.62L37.71 180.62C37.7177 180.496 37.773 180.38 37.8644 180.296C37.9557 180.213 38.076 180.167 38.2 180.17H47.39C47.4558 180.177 47.5196 180.198 47.5774 180.23C47.6353 180.262 47.6862 180.306 47.7271 180.358C47.7681 180.41 47.7983 180.47 47.8159 180.534C47.8336 180.598 47.8384 180.664 47.83 180.73Z" fill="#050505"/>
<path d="M80.1801 206.18C80.2277 209.483 79.2916 212.726 77.4908 215.496C75.69 218.265 73.106 220.437 70.0675 221.733C67.0291 223.03 63.6735 223.394 60.4278 222.778C57.1821 222.162 54.193 220.595 51.8407 218.275C49.4885 215.955 47.8795 212.988 47.2185 209.751C46.5575 206.514 46.8744 203.154 48.1287 200.098C49.3831 197.042 51.5183 194.428 54.2627 192.589C57.007 190.749 60.2365 189.768 63.5401 189.77C67.9217 189.743 72.1347 191.456 75.2545 194.533C78.3743 197.61 80.1458 201.798 80.1801 206.18ZM70.8001 206.18C70.82 204.74 70.4111 203.326 69.6255 202.12C68.8399 200.913 67.7131 199.966 66.3884 199.402C65.0637 198.837 63.6009 198.679 62.1861 198.947C60.7712 199.216 59.4683 199.9 58.4429 200.911C57.4176 201.922 56.7161 203.215 56.4278 204.626C56.1395 206.037 56.2773 207.502 56.8237 208.835C57.3701 210.167 58.3005 211.307 59.4965 212.109C60.6924 212.911 62.1 213.34 63.5401 213.34C65.4515 213.35 67.2892 212.603 68.6501 211.261C70.0111 209.918 70.7843 208.091 70.8001 206.18Z" fill="#050505"/>
<path d="M115.71 180.88V221.1C115.71 221.232 115.657 221.36 115.564 221.453C115.47 221.547 115.343 221.6 115.21 221.6H106.45C106.317 221.6 106.19 221.547 106.096 221.453C106.003 221.36 105.95 221.232 105.95 221.1V220.64C105.951 220.595 105.94 220.551 105.918 220.511C105.896 220.472 105.864 220.44 105.825 220.417C105.786 220.394 105.742 220.383 105.697 220.383C105.652 220.384 105.608 220.396 105.57 220.42C103.05 221.844 100.205 222.592 97.31 222.59C95.1203 222.644 92.9419 222.259 90.903 221.459C88.8642 220.658 87.0062 219.458 85.4383 217.928C83.8705 216.398 82.6245 214.57 81.7738 212.552C80.9231 210.534 80.4849 208.365 80.4849 206.175C80.4849 203.984 80.9231 201.816 81.7738 199.798C82.6245 197.779 83.8705 195.951 85.4383 194.422C87.0062 192.892 88.8642 191.692 90.903 190.891C92.9419 190.09 95.1203 189.706 97.31 189.76C100.204 189.754 103.05 190.498 105.57 191.92C105.608 191.943 105.651 191.955 105.695 191.956C105.739 191.957 105.782 191.946 105.821 191.925C105.86 191.904 105.892 191.873 105.914 191.835C105.937 191.797 105.949 191.754 105.95 191.71V180.88C105.95 180.747 106.003 180.62 106.096 180.526C106.19 180.433 106.317 180.38 106.45 180.38H115.21C115.343 180.38 115.47 180.433 115.564 180.526C115.657 180.62 115.71 180.747 115.71 180.88ZM105.94 206.17C105.94 202.02 103.02 198.64 98.81 198.64C96.813 198.64 94.8977 199.433 93.4855 200.845C92.0734 202.258 91.28 204.173 91.28 206.17C91.28 208.167 92.0734 210.082 93.4855 211.494C94.8977 212.907 96.813 213.7 98.81 213.7C103 213.7 105.94 210.32 105.94 206.17Z" fill="#050505"/>
<path d="M132 189C131.24 189.76 131.2 191.19 131.2 192.26C131.205 192.392 131.261 192.517 131.356 192.608C131.451 192.699 131.578 192.75 131.71 192.75H135C135.132 192.753 135.257 192.806 135.351 192.899C135.444 192.993 135.497 193.118 135.5 193.25V200.65C135.497 200.782 135.444 200.908 135.351 201.001C135.257 201.094 135.132 201.148 135 201.15H131.74C131.607 201.15 131.48 201.203 131.386 201.297C131.293 201.39 131.24 201.518 131.24 201.65V221.14C131.237 221.272 131.184 221.398 131.091 221.491C130.997 221.584 130.872 221.638 130.74 221.64H122C121.933 221.64 121.868 221.627 121.806 221.601C121.745 221.575 121.689 221.538 121.643 221.49C121.596 221.443 121.56 221.386 121.535 221.325C121.511 221.263 121.499 221.197 121.5 221.13V201.63C121.5 201.498 121.447 201.37 121.354 201.277C121.26 201.183 121.133 201.13 121 201.13H117.74C117.608 201.128 117.482 201.074 117.389 200.981C117.296 200.888 117.243 200.762 117.24 200.63V193.23C117.243 193.098 117.296 192.973 117.389 192.879C117.482 192.786 117.608 192.733 117.74 192.73H121C121.133 192.73 121.26 192.677 121.354 192.584C121.447 192.49 121.5 192.363 121.5 192.23V188.54C121.5 181.54 127.19 180.54 129.64 180.39C130.32 180.39 130.76 180.39 130.78 180.39H135.78C135.85 180.39 135.919 180.404 135.984 180.432C136.048 180.461 136.105 180.502 136.152 180.554C136.2 180.606 136.235 180.667 136.257 180.733C136.279 180.8 136.287 180.87 136.28 180.94L135.58 187.84C135.568 187.964 135.509 188.079 135.417 188.162C135.325 188.245 135.204 188.291 135.08 188.29H134.08C133.703 188.251 133.321 188.294 132.962 188.416C132.603 188.539 132.275 188.738 132 189Z" fill="#050505"/>
<path d="M165.27 190.77V221.12C165.27 221.253 165.217 221.38 165.123 221.474C165.03 221.567 164.903 221.62 164.77 221.62H156C155.867 221.62 155.74 221.567 155.646 221.474C155.553 221.38 155.5 221.253 155.5 221.12V220.27C155.499 220.225 155.485 220.182 155.461 220.144C155.438 220.106 155.404 220.075 155.364 220.055C155.324 220.034 155.28 220.025 155.235 220.028C155.19 220.03 155.147 220.045 155.11 220.07C153.259 221.371 151.052 222.069 148.79 222.07C146.02 221.999 143.337 221.085 141.1 219.45C140.851 219.262 140.617 219.055 140.4 218.83C137.2 215.62 136.66 213.01 136.66 208.39V190.77C136.66 190.638 136.713 190.51 136.806 190.417C136.9 190.323 137.027 190.27 137.16 190.27H146.51C146.643 190.27 146.77 190.323 146.863 190.417C146.957 190.51 147.01 190.638 147.01 190.77V207.92C146.949 209.136 147.14 210.351 147.57 211.49C147.772 211.924 148.069 212.307 148.44 212.61C149.113 213.094 149.932 213.334 150.76 213.29C152.56 213.29 153.96 212.67 154.4 211.67C154.826 210.468 154.999 209.192 154.91 207.92V190.77C154.91 190.638 154.963 190.51 155.056 190.417C155.15 190.323 155.277 190.27 155.41 190.27H164.76C164.826 190.269 164.892 190.281 164.954 190.305C165.016 190.33 165.072 190.366 165.12 190.413C165.167 190.46 165.205 190.515 165.231 190.576C165.257 190.638 165.27 190.704 165.27 190.77Z" fill="#050505"/>
<path d="M178.28 180.89V221.12C178.277 221.252 178.224 221.378 178.131 221.471C178.038 221.564 177.912 221.618 177.78 221.62H168.52C168.387 221.62 168.26 221.567 168.166 221.474C168.073 221.38 168.02 221.253 168.02 221.12V180.89C168.02 180.758 168.073 180.63 168.166 180.537C168.26 180.443 168.387 180.39 168.52 180.39H177.78C177.912 180.393 178.038 180.446 178.131 180.539C178.224 180.633 178.277 180.758 178.28 180.89Z" fill="#050505"/>
<path d="M90 38.3102C89.91 38.3102 89.85 38.4102 89.8 38.5002L83.09 51.7402L83.03 51.8802L81.03 55.8802L77.77 62.3002L74.29 69.0002L70.82 75.8302L67.43 82.4802L64.28 88.6802L61.49 94.1702L59.19 98.6802L57.53 102L56.63 103.76C56.5981 103.844 56.5579 103.924 56.51 104C54.78 107.4 51.95 107.4 50.21 104L28.08 60.4902C28.0206 60.3476 27.99 60.1947 27.99 60.0402C27.99 59.8857 28.0206 59.7328 28.08 59.5902L34.23 47.5002C34.72 46.5002 35.53 46.5002 36.02 47.5002L51.2 77.3502C51.69 78.3502 52.5 78.3502 52.99 77.3502L61.78 60.0602C61.8443 59.9171 61.8775 59.7621 61.8775 59.6052C61.8775 59.4484 61.8443 59.2933 61.78 59.1502L32.05 0.720215C31.56 -0.279785 30.76 -0.279785 30.27 0.720215L0.0999815 60.0002C0.0356852 60.1433 0.00244141 60.2984 0.00244141 60.4552C0.00244141 60.6121 0.0356852 60.7671 0.0999815 60.9102L44.93 149C45.43 150 46.1 150.52 46.8 150.52H61.14C61.84 150.52 62.51 149.98 63.01 149L89.16 97.6302C89.65 96.6302 90.46 96.6302 90.95 97.6302L117.32 149.47C117.82 150.47 118.49 151 119.19 151H133.53C134.23 151 134.91 150.45 135.4 149.47L180.24 61.3602C180.359 61.0686 180.359 60.7418 180.24 60.4502L150.06 1.16021C149.57 0.160215 148.77 0.160215 148.28 1.16021L118.55 59.5902C118.486 59.7316 118.453 59.885 118.453 60.0402C118.453 60.1954 118.486 60.3489 118.55 60.4902L127.35 77.7802C127.84 78.7802 128.64 78.7802 129.13 77.7802L144.31 47.9302C144.81 46.9302 145.61 46.9302 146.1 47.9302L152.25 60.0002C152.369 60.2918 152.369 60.6186 152.25 60.9102L127.86 108.84C127.37 109.84 126.57 109.84 126.08 108.84L123.32 103.42L121.93 100.68L119.79 96.4802L117.06 91.1102L113.89 84.8802L110.42 78.0702L106.82 71.0002L103.22 63.9402L99.79 57.1902C97.5767 52.8435 95.3633 48.4902 93.15 44.1302C92.15 42.2402 91.21 40.3702 90.23 38.4902C90.19 38.4102 90.12 38.3102 90 38.3102Z" fill="#050505"/>
</g>
<defs>
<clipPath id="clip0_208_9895">
<rect width="180" height="223" fill="white"/>
</clipPath>
</defs>
</svg>
