<svg width="105" height="41" viewBox="0 0 105 41" fill="none" xmlns="http://www.w3.org/2000/svg">
<g clip-path="url(#clip0_9_5924)">
<path d="M19.9638 12.8135C19.9439 12.8135 19.9306 12.8359 19.9195 12.856L18.4311 15.8153L18.4178 15.8465L17.9741 16.7406L17.251 18.1755L16.4791 19.673L15.7094 21.1996L14.9575 22.6859L14.2587 24.0717L13.6399 25.2988L13.1297 26.3068L12.7615 27.0489L12.5618 27.4422C12.5548 27.461 12.5459 27.4789 12.5352 27.4959C12.1515 28.2558 11.5237 28.2558 11.1378 27.4959L6.22901 17.771C6.21583 17.7391 6.20905 17.7049 6.20905 17.6704C6.20905 17.6359 6.21583 17.6017 6.22901 17.5698L7.59318 14.8676C7.70187 14.6441 7.88154 14.6441 7.99023 14.8676L11.3574 21.5393C11.4661 21.7628 11.6457 21.7628 11.7544 21.5393L13.7042 17.6749C13.7185 17.6429 13.7258 17.6082 13.7258 17.5732C13.7258 17.5381 13.7185 17.5034 13.7042 17.4715L7.10962 4.41177C7.00093 4.18826 6.82348 4.18826 6.71479 4.41177L0.0226125 17.6614C0.00835055 17.6934 0.000976562 17.7281 0.000976562 17.7631C0.000976562 17.7982 0.00835055 17.8329 0.0226125 17.8648L9.9666 37.5538C10.0775 37.7773 10.2261 37.8936 10.3814 37.8936H13.5622C13.7175 37.8936 13.8661 37.7729 13.977 37.5538L19.7775 26.0721C19.8862 25.8486 20.0659 25.8486 20.1746 26.0721L26.0238 37.6589C26.1347 37.8824 26.2834 38.0008 26.4386 38.0008H29.6195C29.7747 38.0008 29.9256 37.8779 30.0343 37.6589L39.9805 17.9654C40.007 17.9002 40.007 17.8272 39.9805 17.762L33.2861 4.51012C33.1774 4.28661 32.9999 4.28661 32.8912 4.51012L26.2967 17.5698C26.2825 17.6014 26.2751 17.6357 26.2751 17.6704C26.2751 17.7051 26.2825 17.7394 26.2967 17.771L28.2486 21.6354C28.3573 21.859 28.5348 21.859 28.6435 21.6354L32.0106 14.9637C32.1215 14.7402 32.299 14.7402 32.4077 14.9637L33.7719 17.6614C33.7984 17.7266 33.7984 17.7997 33.7719 17.8648L28.3618 28.5777C28.2531 28.8012 28.0756 28.8012 27.9669 28.5777L27.3547 27.3662L27.0464 26.7538L26.5717 25.8151L25.9662 24.6148L25.263 23.2224L24.4933 21.7003L23.6948 20.1201L22.8962 18.5421L22.1354 17.0334C21.6445 16.0619 21.1535 15.0888 20.6626 14.1143C20.4407 13.6919 20.2322 13.2739 20.0149 12.8537C20.006 12.8359 19.9904 12.8135 19.9638 12.8135Z" fill="white"/>
</g>
<path d="M52.076 27.5L48.7464 15.8636H51.4339L53.3601 23.9489H53.4567L55.5817 15.8636H57.8828L60.0021 23.9659H60.1044L62.0305 15.8636H64.718L61.3885 27.5H58.9908L56.7749 19.892H56.6839L54.4737 27.5H52.076ZM68.995 27.6705C68.1125 27.6705 67.3492 27.483 66.7053 27.108C66.0651 26.7292 65.5708 26.2027 65.2223 25.5284C64.8738 24.8504 64.6996 24.0644 64.6996 23.1705C64.6996 22.2689 64.8738 21.4811 65.2223 20.8068C65.5708 20.1288 66.0651 19.6023 66.7053 19.2273C67.3492 18.8485 68.1125 18.6591 68.995 18.6591C69.8776 18.6591 70.639 18.8485 71.2791 19.2273C71.9231 19.6023 72.4193 20.1288 72.7678 20.8068C73.1162 21.4811 73.2905 22.2689 73.2905 23.1705C73.2905 24.0644 73.1162 24.8504 72.7678 25.5284C72.4193 26.2027 71.9231 26.7292 71.2791 27.108C70.639 27.483 69.8776 27.6705 68.995 27.6705ZM69.0064 25.7955C69.4079 25.7955 69.7431 25.6818 70.0121 25.4545C70.281 25.2235 70.4837 24.9091 70.62 24.5114C70.7602 24.1136 70.8303 23.661 70.8303 23.1534C70.8303 22.6458 70.7602 22.1932 70.62 21.7955C70.4837 21.3977 70.281 21.0833 70.0121 20.8523C69.7431 20.6212 69.4079 20.5057 69.0064 20.5057C68.6011 20.5057 68.2602 20.6212 67.9837 20.8523C67.7109 21.0833 67.5045 21.3977 67.3643 21.7955C67.228 22.1932 67.1598 22.6458 67.1598 23.1534C67.1598 23.661 67.228 24.1136 67.3643 24.5114C67.5045 24.9091 67.7109 25.2235 67.9837 25.4545C68.2602 25.6818 68.6011 25.7955 69.0064 25.7955ZM78.0803 27.642C77.4174 27.642 76.817 27.4716 76.2791 27.1307C75.745 26.786 75.3208 26.2803 75.0064 25.6136C74.6958 24.9432 74.5405 24.1212 74.5405 23.1477C74.5405 22.1477 74.7015 21.3163 75.0234 20.6534C75.3454 19.9867 75.7734 19.4886 76.3075 19.1591C76.8454 18.8258 77.4344 18.6591 78.0746 18.6591C78.5632 18.6591 78.9704 18.7424 79.2962 18.9091C79.6257 19.072 79.8909 19.2765 80.0916 19.5227C80.2962 19.7652 80.4515 20.0038 80.5575 20.2386H80.6314V15.8636H83.0462V27.5H80.6598V26.1023H80.5575C80.4439 26.3447 80.2829 26.5852 80.0746 26.8239C79.87 27.0587 79.603 27.2538 79.2734 27.4091C78.9477 27.5644 78.55 27.642 78.0803 27.642ZM78.8473 25.7159C79.2375 25.7159 79.567 25.6098 79.8359 25.3977C80.1087 25.1818 80.317 24.8807 80.4609 24.4943C80.6087 24.108 80.6825 23.6553 80.6825 23.1364C80.6825 22.6174 80.6106 22.1667 80.4666 21.7841C80.3227 21.4015 80.1143 21.1061 79.8416 20.8977C79.5689 20.6894 79.2375 20.5852 78.8473 20.5852C78.4496 20.5852 78.1143 20.6932 77.8416 20.9091C77.5689 21.125 77.3625 21.4242 77.2223 21.8068C77.0821 22.1894 77.0121 22.6326 77.0121 23.1364C77.0121 23.6439 77.0821 24.0928 77.2223 24.483C77.3662 24.8693 77.5727 25.1723 77.8416 25.392C78.1143 25.608 78.4496 25.7159 78.8473 25.7159ZM89.7294 18.7727V20.5909H84.343V18.7727H89.7294ZM85.576 27.5V18.142C85.576 17.5095 85.6991 16.9848 85.9453 16.5682C86.1953 16.1515 86.5362 15.839 86.968 15.6307C87.3999 15.4223 87.8904 15.3182 88.4396 15.3182C88.8108 15.3182 89.1499 15.3466 89.4567 15.4034C89.7673 15.4602 89.9983 15.5114 90.1499 15.5568L89.718 17.375C89.6233 17.3447 89.5059 17.3163 89.3658 17.2898C89.2294 17.2633 89.0893 17.25 88.9453 17.25C88.5893 17.25 88.3411 17.3333 88.201 17.5C88.0608 17.6629 87.9908 17.892 87.9908 18.1875V27.5H85.576ZM96.8047 23.7841V18.7727H99.2251V27.5H96.9013V25.9148H96.8104C96.6134 26.4261 96.2857 26.8371 95.8274 27.1477C95.3729 27.4583 94.8179 27.6136 94.1626 27.6136C93.5793 27.6136 93.0661 27.4811 92.6229 27.2159C92.1797 26.9508 91.8331 26.5739 91.5831 26.0852C91.3369 25.5966 91.2119 25.0114 91.2081 24.3295V18.7727H93.6286V23.8977C93.6323 24.4129 93.7706 24.8201 94.0433 25.1193C94.3161 25.4186 94.6816 25.5682 95.1399 25.5682C95.4316 25.5682 95.7043 25.5019 95.9581 25.3693C96.2119 25.233 96.4164 25.0322 96.5717 24.767C96.7308 24.5019 96.8085 24.1742 96.8047 23.7841ZM103.582 15.8636V27.5H101.161V15.8636H103.582Z" fill="white"/>
<defs>
<clipPath id="clip0_9_5924">
<rect width="40" height="33.75" fill="white" transform="translate(0 4.25)"/>
</clipPath>
</defs>
</svg>
